<?xml version="1.0" encoding="utf-8"?>
<!-- Generator: Adobe Illustrator 15.0.2, SVG Export Plug-In . SVG Version: 6.00 Build 0)  -->
<!DOCTYPE svg PUBLIC "-//W3C//DTD SVG 1.1//EN" "http://www.w3.org/Graphics/SVG/1.1/DTD/svg11.dtd">
<svg version="1.1" id="Layer_1" xmlns="http://www.w3.org/2000/svg" xmlns:xlink="http://www.w3.org/1999/xlink" x="0px" y="0px"
	 width="350px" height="128.221px" viewBox="0 0 350 128.221" enable-background="new 0 0 350 128.221" xml:space="preserve">
<g>
	<path fill="#F75E25" d="M152.184,86.656c-5.37,4.381-12.701,6.569-21.993,6.569c-4.267,0-8.322-0.439-12.167-1.314
		c-3.847-0.874-7.332-1.959-10.454-3.255h0.114c-0.457-0.152-0.856-0.515-1.2-1.086c-0.343-0.571-0.514-1.085-0.514-1.542v-8.341
		c0-1.902,0.875-2.855,2.627-2.855c0.457,0,0.914,0.114,1.371,0.343l-0.114-0.113c3.122,1.446,6.284,2.608,9.482,3.483
		c3.199,0.876,6.626,1.313,10.282,1.313c5.027,0,8.892-0.971,11.596-2.913c2.703-1.942,4.056-4.855,4.056-8.74
		c0-3.427-1.219-6.129-3.656-8.111c-2.438-1.979-6.018-3.771-10.739-5.369c-3.961-1.371-7.312-2.686-10.054-3.942
		c-2.742-1.256-5.275-2.816-7.598-4.684c-2.324-1.865-4.189-4.207-5.598-7.026c-1.41-2.817-2.113-6.169-2.113-10.054
		c0-7.692,2.57-13.652,7.711-17.879c5.142-4.228,12.128-6.341,20.964-6.341c3.656,0,7.598,0.478,11.825,1.429
		c4.227,0.954,7.483,1.924,9.768,2.914l-0.229-0.114c1.294,0.382,1.942,1.256,1.942,2.627c0,0.686-0.154,1.219-0.457,1.6
		l-2.285,6.283c-0.382,1.144-1.257,1.714-2.627,1.714c-0.686,0-1.219-0.151-1.6-0.457c-2.513-0.988-5.046-1.771-7.598-2.342
		c-2.552-0.571-5.503-0.857-8.854-0.857c-4.189,0-7.598,0.914-10.225,2.742c-2.628,1.828-3.941,4.341-3.941,7.541
		c0,2.971,1.085,5.39,3.256,7.254c2.171,1.867,6.112,3.752,11.825,5.655c4.188,1.371,7.75,2.781,10.682,4.229
		c2.931,1.446,5.501,3.181,7.711,5.197c2.208,2.02,3.903,4.477,5.084,7.369c1.18,2.896,1.771,6.323,1.771,10.282
		C160.238,76.014,157.554,82.277,152.184,86.656z"/>
	<path fill="#F75E25" d="M198.967,88.541c-1.6,0.839-3.599,1.619-5.996,2.342c-2.4,0.725-4.629,1.086-6.685,1.086
		c-5.484,0-9.56-1.312-12.225-3.94c-2.667-2.628-3.999-6.949-3.999-12.967V45.469h-6.74c-1.828,0-2.742-0.95-2.742-2.855v-6.055
		c0-1.828,0.914-2.742,2.742-2.742h6.74V21.821c0-0.76,0.266-1.409,0.8-1.942c0.532-0.531,1.217-0.8,2.057-0.8h8.34
		c1.828,0,2.742,0.914,2.742,2.742v11.996h10.968c1.902,0,2.856,0.914,2.856,2.742v6.055c0,1.905-0.954,2.855-2.856,2.855h-10.968
		v28.333c0,2.211,0.267,3.753,0.8,4.628c0.531,0.877,1.561,1.312,3.084,1.312c1.295,0,2.665-0.209,4.113-0.628
		c1.445-0.418,2.514-0.857,3.199-1.313c0.914-0.458,1.6-0.686,2.056-0.686c0.761,0,1.409,0.268,1.942,0.799
		c0.531,0.534,0.8,1.22,0.8,2.058V86.6L198.967,88.541z"/>
	<path fill="#F75E25" d="M215.99,68.548c0.686,3.276,2.208,6.038,4.568,8.283c2.36,2.248,5.56,3.37,9.598,3.37
		c3.046,0,5.787-0.343,8.226-1.028c2.438-0.685,4.685-1.56,6.741-2.628c0.456-0.228,0.913-0.343,1.371-0.343
		c0.76,0,1.406,0.27,1.941,0.801c0.531,0.533,0.799,1.22,0.799,2.057v7.084c0,1.143-0.496,1.98-1.484,2.514
		c-2.514,1.219-5.16,2.17-7.939,2.855c-2.781,0.686-6.381,1.027-10.797,1.027c-9.063,0-16.014-2.799-20.85-8.396
		c-4.838-5.6-7.255-12.739-7.255-21.422c0-8.912,2.456-16.109,7.368-21.594c4.912-5.482,11.481-8.226,19.707-8.226
		c8.149,0,14.396,2.496,18.736,7.482c4.342,4.99,6.514,12.207,6.514,21.65v3.655c0,1.905-0.955,2.855-2.856,2.855L215.99,68.548
		L215.99,68.548z M219.988,47.812c-1.904,2.019-3.238,4.97-3.998,8.854h22.277c-0.383-3.808-1.447-6.74-3.199-8.797
		s-4.228-3.085-7.426-3.085C224.443,44.785,221.893,45.795,219.988,47.812z"/>
	<path fill="#F75E25" d="M293.105,12.796c-0.152,0.457-0.496,0.857-1.027,1.2c-0.533,0.342-1.028,0.514-1.485,0.514
		c-0.839,0-1.446-0.188-1.827-0.57c-1.067-0.38-2.039-0.704-2.914-0.972c-0.875-0.266-1.732-0.399-2.569-0.399
		c-2.21,0-3.714,0.971-4.513,2.913c-0.801,1.941-1.199,4.667-1.199,8.169v9.711h9.481c1.902,0,2.856,0.953,2.856,2.855v6.169
		c0,1.828-0.954,2.742-2.856,2.742h-9.481v43.187c0,0.839-0.27,1.522-0.801,2.056c-0.533,0.534-1.182,0.8-1.941,0.8h-8.454
		c-1.828,0-2.742-0.951-2.742-2.854V45.127h-6.854c-1.827,0-2.741-0.914-2.741-2.742v-6.169c0-1.902,0.914-2.855,2.741-2.855h6.854
		V20.564c0-2.588,0.343-5.084,1.028-7.483c0.686-2.398,1.771-4.588,3.256-6.568c1.484-1.979,3.445-3.56,5.884-4.741
		C276.236,0.591,279.13,0,282.482,0c2.133,0,4.095,0.269,5.885,0.8c1.789,0.534,3.751,1.448,5.884,2.742
		c0.838,0.534,1.257,1.371,1.257,2.514v0.57L293.105,12.796z"/>
	<path fill="#F75E25" d="M349.43,86.143c-1.904,1.523-3.941,2.74-6.113,3.654c-2.17,0.914-4.283,1.371-6.34,1.371
		c-4.267,0-7.236-1.294-8.91-3.884c-1.754,1.524-3.942,2.78-6.57,3.771c-2.627,0.988-5.541,1.484-8.739,1.484
		c-6.932,0-12.321-1.865-16.166-5.598c-3.847-3.731-5.771-8.835-5.771-15.311c0-6.093,2.037-11.082,6.113-14.966
		c4.072-3.884,9.576-5.826,16.508-5.826c2.359,0,4.646,0.306,6.854,0.914c2.208,0.61,4.188,1.41,5.94,2.399v-0.229
		c0-5.94-3.58-8.91-10.739-8.91c-4.112,0-7.922,0.876-11.425,2.627l0.457-0.229c-0.383,0.382-0.99,0.571-1.827,0.571
		c-1.296,0-2.134-0.571-2.515-1.714v0.113l-2.17-5.255c-0.229-0.229-0.344-0.723-0.344-1.484c0-1.371,0.532-2.246,1.6-2.628
		c5.256-2.742,11.121-4.113,17.596-4.113c7.92,0,13.822,1.924,17.708,5.77c3.884,3.848,5.825,9.351,5.825,16.509v24.106
		c0.457,0,1.182-0.267,2.172-0.8c0.074-0.075,0.15-0.115,0.229-0.115c0.075,0,0.189-0.074,0.344-0.228l0.229-0.115
		c0.607-0.303,1.104-0.457,1.484-0.457c0.838,0,1.561,0.306,2.172,0.915L350,83.4L349.43,86.143z M323.268,65.063
		c-2.058-1.638-4.953-2.456-8.684-2.456c-3.048,0-5.391,0.839-7.025,2.514c-1.64,1.676-2.457,3.847-2.457,6.512
		c0,2.742,0.838,4.934,2.514,6.569c1.675,1.639,4.113,2.456,7.312,2.456c3.273,0,5.998-0.856,8.169-2.57
		c2.17-1.714,3.256-3.94,3.256-6.684C326.352,68.815,325.323,66.702,323.268,65.063z"/>
	<path fill="#4F5250" d="M26.46,118.942h-5.234v5.406H18.5v-13.23h8.615v2.208h-5.889v3.417h5.234V118.942z"/>
	<path fill="#4F5250" d="M28.016,119.342c0-0.976,0.188-1.845,0.563-2.606c0.376-0.764,0.917-1.354,1.622-1.772
		c0.705-0.418,1.525-0.627,2.458-0.627c1.327,0,2.41,0.406,3.249,1.219c0.839,0.812,1.307,1.913,1.404,3.308l0.018,0.673
		c0,1.508-0.421,2.718-1.263,3.63c-0.842,0.912-1.972,1.367-3.389,1.367c-1.418,0-2.549-0.454-3.394-1.362
		c-0.845-0.909-1.268-2.145-1.268-3.708V119.342z M30.642,119.528c0,0.935,0.176,1.647,0.527,2.144
		c0.352,0.494,0.854,0.741,1.509,0.741c0.636,0,1.132-0.244,1.49-0.731c0.357-0.488,0.536-1.271,0.536-2.345
		c0-0.916-0.179-1.626-0.536-2.129c-0.358-0.504-0.86-0.756-1.509-0.756c-0.642,0-1.139,0.251-1.49,0.751
		C30.818,117.704,30.642,118.479,30.642,119.528z"/>
	<path fill="#4F5250" d="M41.812,124.349h-2.635v-13.957h2.635V124.349z"/>
	<path fill="#4F5250" d="M43.659,119.36c0-1.533,0.344-2.754,1.031-3.662c0.688-0.909,1.628-1.363,2.822-1.363
		c0.957,0,1.748,0.357,2.372,1.072v-5.016h2.635v13.957h-2.372l-0.127-1.045c-0.654,0.817-1.496,1.227-2.526,1.227
		c-1.157,0-2.086-0.455-2.786-1.367S43.659,120.983,43.659,119.36z M46.285,119.547c0,0.926,0.161,1.635,0.482,2.127
		c0.321,0.493,0.787,0.739,1.399,0.739c0.812,0,1.384-0.344,1.717-1.031v-3.897c-0.327-0.688-0.894-1.031-1.699-1.031
		C46.918,116.452,46.285,117.483,46.285,119.547z"/>
	<path fill="#4F5250" d="M54.629,111.973c0-0.396,0.132-0.719,0.396-0.974c0.263-0.255,0.622-0.382,1.077-0.382
		c0.448,0,0.806,0.127,1.072,0.382c0.266,0.255,0.4,0.578,0.4,0.974c0,0.398-0.135,0.727-0.404,0.98
		c-0.27,0.254-0.626,0.381-1.068,0.381s-0.798-0.127-1.068-0.381C54.764,112.699,54.629,112.372,54.629,111.973z M57.419,124.349
		h-2.635v-9.832h2.635V124.349z"/>
	<path fill="#4F5250" d="M62.092,114.517l0.082,1.136c0.703-0.878,1.645-1.317,2.826-1.317c1.042,0,1.817,0.307,2.326,0.918
		c0.509,0.611,0.769,1.526,0.782,2.744v6.353h-2.626v-6.304c0-0.559-0.121-0.964-0.363-1.216c-0.242-0.252-0.645-0.378-1.208-0.378
		c-0.739,0-1.294,0.315-1.663,0.947v6.949h-2.626v-9.832H62.092z"/>
	<path fill="#4F5250" d="M69.809,119.36c0-1.509,0.359-2.725,1.077-3.646c0.718-0.92,1.686-1.381,2.903-1.381
		c1.079,0,1.917,0.369,2.517,1.108l0.109-0.927h2.381v9.505c0,0.859-0.195,1.607-0.586,2.245c-0.391,0.636-0.94,1.119-1.649,1.453
		c-0.709,0.333-1.539,0.499-2.49,0.499c-0.721,0-1.423-0.144-2.108-0.432c-0.685-0.287-1.203-0.658-1.554-1.113l1.164-1.599
		c0.654,0.732,1.448,1.1,2.38,1.1c0.697,0,1.239-0.187,1.627-0.56c0.388-0.372,0.582-0.9,0.582-1.585v-0.527
		c-0.606,0.686-1.402,1.026-2.39,1.026c-1.181,0-2.137-0.462-2.867-1.386c-0.73-0.925-1.095-2.148-1.095-3.677L69.809,119.36
		L69.809,119.36z M72.435,119.547c0,0.896,0.179,1.597,0.536,2.104c0.358,0.508,0.848,0.762,1.472,0.762
		c0.8,0,1.372-0.301,1.718-0.903v-4.153c-0.352-0.603-0.918-0.903-1.699-0.903c-0.63,0-1.125,0.259-1.486,0.776
		C72.615,117.746,72.435,118.519,72.435,119.547z"/>
	<path fill="#4F5250" d="M81.588,127.666l-1.372-0.718l0.327-0.591c0.405-0.739,0.614-1.477,0.627-2.208v-2.036h2.217l-0.009,1.817
		c-0.006,0.673-0.176,1.352-0.509,2.035C82.536,126.651,82.109,127.218,81.588,127.666z"/>
	<path fill="#4F5250" d="M97.304,120.878c0-0.516-0.182-0.91-0.545-1.187c-0.363-0.275-1.018-0.566-1.963-0.872
		c-0.945-0.306-1.693-0.607-2.244-0.904c-1.502-0.812-2.254-1.905-2.254-3.28c0-0.715,0.202-1.353,0.604-1.912
		c0.403-0.561,0.981-0.998,1.735-1.312c0.754-0.314,1.601-0.473,2.54-0.473c0.945,0,1.787,0.171,2.526,0.514
		c0.739,0.342,1.313,0.825,1.722,1.449c0.409,0.624,0.613,1.333,0.613,2.126h-2.726c0-0.605-0.19-1.076-0.572-1.413
		c-0.382-0.336-0.918-0.504-1.608-0.504c-0.667,0-1.185,0.141-1.554,0.422c-0.37,0.282-0.555,0.653-0.555,1.113
		c0,0.431,0.217,0.791,0.65,1.082c0.433,0.291,1.071,0.562,1.913,0.816c1.551,0.467,2.681,1.045,3.39,1.735s1.063,1.552,1.063,2.581
		c0,1.146-0.433,2.043-1.299,2.694c-0.866,0.65-2.032,0.977-3.499,0.977c-1.018,0-1.944-0.187-2.78-0.559s-1.474-0.884-1.913-1.531
		c-0.439-0.648-0.659-1.399-0.659-2.253h2.735c0,1.46,0.873,2.188,2.617,2.188c0.648,0,1.154-0.132,1.518-0.396
		C97.123,121.718,97.304,121.351,97.304,120.878z"/>
	<path fill="#4F5250" d="M104.576,124.349h-2.635v-13.957h2.635V124.349z"/>
	<path fill="#4F5250" d="M106.813,111.973c0-0.396,0.132-0.719,0.396-0.974s0.623-0.382,1.077-0.382
		c0.449,0,0.806,0.127,1.072,0.382s0.4,0.578,0.4,0.974c0,0.398-0.135,0.727-0.404,0.98c-0.27,0.254-0.625,0.381-1.068,0.381
		c-0.442,0-0.798-0.127-1.067-0.381C106.949,112.699,106.813,112.372,106.813,111.973z M109.604,124.349h-2.635v-9.832h2.635
		V124.349z"/>
	<path fill="#4F5250" d="M115.003,112.1v2.417h1.681v1.927h-1.681v4.907c0,0.362,0.069,0.624,0.209,0.78
		c0.139,0.157,0.406,0.236,0.799,0.236c0.291,0,0.548-0.021,0.772-0.062v1.988c-0.515,0.158-1.045,0.236-1.59,0.236
		c-1.841,0-2.78-0.93-2.817-2.789v-5.298h-1.436v-1.927h1.436V112.1H115.003z"/>
	<path fill="#4F5250" d="M121.385,112.1v2.417h1.681v1.927h-1.681v4.907c0,0.362,0.069,0.624,0.209,0.78
		c0.139,0.157,0.405,0.236,0.799,0.236c0.291,0,0.548-0.021,0.772-0.062v1.988c-0.515,0.158-1.045,0.236-1.59,0.236
		c-1.841,0-2.78-0.93-2.817-2.789v-5.298h-1.436v-1.927h1.436V112.1H121.385z"/>
	<path fill="#4F5250" d="M124.604,111.973c0-0.396,0.132-0.719,0.396-0.974s0.623-0.382,1.077-0.382
		c0.448,0,0.806,0.127,1.072,0.382s0.4,0.578,0.4,0.974c0,0.398-0.135,0.727-0.404,0.98c-0.27,0.254-0.626,0.381-1.068,0.381
		c-0.442,0-0.798-0.127-1.067-0.381C124.738,112.699,124.604,112.372,124.604,111.973z M127.394,124.349h-2.635v-9.832h2.635
		V124.349z"/>
	<path fill="#4F5250" d="M132.066,114.517l0.082,1.136c0.703-0.878,1.645-1.317,2.826-1.317c1.042,0,1.817,0.307,2.326,0.918
		c0.509,0.611,0.77,1.526,0.782,2.744v6.353h-2.626v-6.304c0-0.559-0.121-0.964-0.363-1.216c-0.242-0.252-0.645-0.378-1.208-0.378
		c-0.739,0-1.293,0.315-1.663,0.947v6.949h-2.626v-9.832H132.066z"/>
	<path fill="#4F5250" d="M139.783,119.36c0-1.509,0.359-2.725,1.077-3.646c0.718-0.92,1.686-1.381,2.903-1.381
		c1.078,0,1.917,0.369,2.517,1.108l0.109-0.927h2.381v9.505c0,0.859-0.195,1.607-0.586,2.245c-0.391,0.636-0.94,1.119-1.649,1.453
		c-0.709,0.333-1.539,0.499-2.49,0.499c-0.721,0-1.424-0.144-2.108-0.432c-0.685-0.287-1.203-0.658-1.554-1.113l1.163-1.599
		c0.654,0.732,1.448,1.1,2.381,1.1c0.696,0,1.239-0.187,1.626-0.56c0.388-0.372,0.582-0.9,0.582-1.585v-0.527
		c-0.606,0.686-1.403,1.026-2.39,1.026c-1.182,0-2.137-0.462-2.867-1.386c-0.73-0.925-1.095-2.148-1.095-3.677V119.36
		L139.783,119.36z M142.41,119.547c0,0.896,0.178,1.597,0.536,2.104c0.357,0.508,0.848,0.762,1.472,0.762
		c0.8,0,1.372-0.301,1.717-0.903v-4.153c-0.351-0.603-0.917-0.903-1.699-0.903c-0.63,0-1.125,0.259-1.486,0.776
		C142.589,117.746,142.41,118.519,142.41,119.547z"/>
	<path fill="#4F5250" d="M161.306,124.349c-0.122-0.236-0.209-0.529-0.264-0.882c-0.636,0.709-1.463,1.062-2.481,1.062
		c-0.963,0-1.761-0.278-2.395-0.836c-0.633-0.557-0.949-1.26-0.949-2.107c0-1.042,0.386-1.842,1.158-2.398
		c0.772-0.559,1.889-0.839,3.349-0.846h1.209v-0.562c0-0.455-0.117-0.818-0.35-1.091c-0.233-0.273-0.601-0.409-1.104-0.409
		c-0.442,0-0.789,0.105-1.041,0.318c-0.252,0.212-0.377,0.503-0.377,0.872h-2.626c0-0.569,0.176-1.097,0.527-1.581
		s0.848-0.864,1.49-1.142c0.642-0.274,1.363-0.413,2.163-0.413c1.211,0,2.173,0.306,2.885,0.913
		c0.712,0.609,1.068,1.465,1.068,2.567v4.262c0.006,0.933,0.136,1.639,0.391,2.117v0.154L161.306,124.349L161.306,124.349z
		 M159.134,122.522c0.388,0,0.745-0.086,1.072-0.259c0.327-0.174,0.569-0.404,0.727-0.695v-1.69h-0.981
		c-1.315,0-2.015,0.454-2.099,1.363l-0.009,0.154c0,0.327,0.115,0.597,0.345,0.809S158.734,122.522,159.134,122.522z"/>
	<path fill="#4F5250" d="M168.096,114.517l0.082,1.136c0.703-0.878,1.645-1.317,2.826-1.317c1.042,0,1.817,0.307,2.326,0.918
		c0.509,0.611,0.77,1.526,0.782,2.744v6.353h-2.626v-6.304c0-0.559-0.121-0.964-0.363-1.216s-0.645-0.378-1.208-0.378
		c-0.739,0-1.293,0.315-1.663,0.947v6.949h-2.626v-9.832H168.096z"/>
	<path fill="#4F5250" d="M175.786,119.36c0-1.533,0.344-2.754,1.03-3.662c0.688-0.909,1.629-1.363,2.822-1.363
		c0.957,0,1.748,0.357,2.371,1.072v-5.016h2.637v13.957h-2.373l-0.127-1.045c-0.653,0.817-1.496,1.227-2.525,1.227
		c-1.157,0-2.086-0.455-2.785-1.367S175.786,120.983,175.786,119.36z M178.412,119.547c0,0.926,0.16,1.635,0.48,2.127
		c0.321,0.493,0.789,0.739,1.399,0.739c0.812,0,1.385-0.344,1.718-1.031v-3.897c-0.326-0.688-0.894-1.031-1.699-1.031
		C179.045,116.452,178.412,117.483,178.412,119.547z"/>
	<path fill="#4F5250" d="M199.635,118.942H194.4v5.406h-2.727v-13.23h8.614v2.208H194.4v3.417h5.233L199.635,118.942
		L199.635,118.942z"/>
	<path fill="#4F5250" d="M201.189,119.342c0-0.976,0.188-1.845,0.563-2.606c0.376-0.764,0.916-1.354,1.623-1.772
		c0.705-0.418,1.524-0.627,2.458-0.627c1.326,0,2.409,0.406,3.248,1.219c0.839,0.812,1.309,1.913,1.404,3.308l0.019,0.673
		c0,1.508-0.422,2.718-1.264,3.63c-0.843,0.912-1.972,1.367-3.39,1.367s-2.55-0.454-3.396-1.362
		c-0.845-0.909-1.269-2.145-1.269-3.708v-0.12H201.189z M203.816,119.528c0,0.935,0.177,1.647,0.526,2.144
		c0.353,0.494,0.854,0.741,1.509,0.741c0.637,0,1.133-0.244,1.49-0.731c0.357-0.488,0.536-1.271,0.536-2.345
		c0-0.916-0.179-1.626-0.536-2.129c-0.357-0.504-0.859-0.756-1.508-0.756c-0.643,0-1.141,0.251-1.491,0.751
		C203.993,117.704,203.816,118.479,203.816,119.528z"/>
	<path fill="#4F5250" d="M217.741,116.979c-0.357-0.049-0.673-0.073-0.945-0.073c-0.994,0-1.646,0.337-1.954,1.009v6.435h-2.626
		v-9.832h2.479l0.074,1.172c0.525-0.902,1.256-1.354,2.188-1.354c0.291,0,0.563,0.039,0.817,0.118L217.741,116.979z"/>
	<path fill="#4F5250" d="M221.561,114.517l0.082,1.1c0.695-0.854,1.639-1.281,2.824-1.281c1.268,0,2.137,0.5,2.608,1.499
		c0.69-0.999,1.675-1.499,2.952-1.499c1.066,0,1.861,0.312,2.382,0.933s0.78,1.556,0.78,2.803v6.279h-2.635v-6.284
		c0-0.56-0.109-0.967-0.326-1.226c-0.219-0.259-0.604-0.388-1.154-0.388c-0.787,0-1.333,0.377-1.637,1.13l0.011,6.768h-2.628v-6.275
		c0-0.571-0.11-0.983-0.336-1.239c-0.223-0.255-0.604-0.382-1.145-0.382c-0.744,0-1.285,0.311-1.617,0.929v6.969h-2.627v-9.832
		h2.465V114.517z"/>
	<path fill="#4F5250" d="M235.283,111.973c0-0.396,0.132-0.719,0.395-0.974c0.264-0.255,0.623-0.382,1.077-0.382
		c0.448,0,0.806,0.127,1.072,0.382c0.266,0.255,0.399,0.578,0.399,0.974c0,0.398-0.135,0.727-0.404,0.98
		c-0.271,0.254-0.625,0.381-1.067,0.381s-0.798-0.127-1.067-0.381C235.418,112.699,235.283,112.372,235.283,111.973z
		 M238.072,124.349h-2.635v-9.832h2.635V124.349z"/>
	<path fill="#4F5250" d="M242.745,114.517l0.082,1.136c0.702-0.878,1.646-1.317,2.825-1.317c1.043,0,1.818,0.307,2.326,0.918
		c0.51,0.611,0.771,1.526,0.781,2.744v6.353h-2.626v-6.304c0-0.559-0.12-0.964-0.362-1.216s-0.646-0.378-1.209-0.378
		c-0.739,0-1.293,0.315-1.664,0.947v6.949h-2.625v-9.832H242.745z"/>
	<path fill="#4F5250" d="M250.463,119.36c0-1.509,0.357-2.725,1.077-3.646c0.718-0.92,1.687-1.381,2.903-1.381
		c1.078,0,1.916,0.369,2.517,1.108l0.108-0.927h2.382v9.505c0,0.859-0.195,1.607-0.586,2.245c-0.392,0.636-0.941,1.119-1.649,1.453
		c-0.709,0.333-1.539,0.499-2.49,0.499c-0.721,0-1.424-0.144-2.107-0.432c-0.686-0.287-1.202-0.658-1.555-1.113l1.164-1.599
		c0.653,0.732,1.447,1.1,2.381,1.1c0.697,0,1.238-0.187,1.627-0.56c0.388-0.372,0.58-0.9,0.58-1.585v-0.527
		c-0.604,0.686-1.401,1.026-2.39,1.026c-1.182,0-2.137-0.462-2.866-1.386c-0.729-0.925-1.096-2.148-1.096-3.677V119.36z
		 M253.089,119.547c0,0.896,0.179,1.597,0.536,2.104s0.85,0.762,1.473,0.762c0.799,0,1.373-0.301,1.717-0.903v-4.153
		c-0.352-0.603-0.918-0.903-1.698-0.903c-0.63,0-1.125,0.259-1.485,0.776C253.271,117.746,253.089,118.519,253.089,119.547z"/>
	<path fill="#4F5250" d="M270.021,111.118l3.398,9.596l3.381-9.596h3.58v13.23h-2.734v-3.616l0.271-6.243l-3.57,9.859h-1.873
		l-3.562-9.851l0.272,6.233v3.616h-2.728v-13.23L270.021,111.118L270.021,111.118z"/>
	<path fill="#4F5250" d="M288.381,124.349c-0.121-0.236-0.209-0.529-0.264-0.882c-0.637,0.709-1.463,1.062-2.48,1.062
		c-0.964,0-1.762-0.278-2.395-0.836c-0.633-0.557-0.95-1.26-0.95-2.107c0-1.042,0.388-1.842,1.159-2.398
		c0.771-0.558,1.889-0.839,3.349-0.846h1.208v-0.562c0-0.455-0.115-0.818-0.35-1.091c-0.234-0.273-0.602-0.409-1.104-0.409
		c-0.441,0-0.789,0.105-1.041,0.318c-0.25,0.212-0.377,0.503-0.377,0.872h-2.626c0-0.569,0.177-1.097,0.526-1.581
		c0.352-0.484,0.849-0.864,1.49-1.142c0.643-0.274,1.363-0.413,2.162-0.413c1.213,0,2.174,0.306,2.886,0.913
		c0.712,0.609,1.067,1.465,1.067,2.567v4.262c0.006,0.933,0.137,1.639,0.392,2.117v0.154L288.381,124.349L288.381,124.349z
		 M286.209,122.522c0.389,0,0.745-0.086,1.072-0.259c0.326-0.174,0.568-0.404,0.727-0.695v-1.69h-0.98
		c-1.314,0-2.014,0.454-2.1,1.363l-0.009,0.154c0,0.327,0.114,0.597,0.345,0.809C285.495,122.416,285.811,122.522,286.209,122.522z"
		/>
	<path fill="#4F5250" d="M296.843,122.413c0.484,0,0.88-0.133,1.183-0.398c0.303-0.267,0.459-0.621,0.473-1.063h2.462
		c-0.006,0.667-0.188,1.277-0.545,1.831c-0.356,0.555-0.847,0.984-1.468,1.29c-0.621,0.307-1.307,0.459-2.059,0.459
		c-1.406,0-2.515-0.446-3.326-1.34c-0.811-0.895-1.217-2.128-1.217-3.703v-0.173c0-1.516,0.401-2.724,1.209-3.626
		c0.805-0.902,1.91-1.354,3.315-1.354c1.229,0,2.216,0.351,2.958,1.05s1.119,1.632,1.131,2.795h-2.462
		c-0.013-0.513-0.17-0.929-0.474-1.247c-0.303-0.319-0.702-0.479-1.199-0.479c-0.611,0-1.073,0.224-1.387,0.669
		c-0.312,0.446-0.467,1.169-0.467,2.171v0.272c0,1.014,0.153,1.742,0.463,2.185C295.743,122.191,296.213,122.413,296.843,122.413z"
		/>
	<path fill="#4F5250" d="M305.114,115.589c0.696-0.836,1.571-1.254,2.626-1.254c2.133,0,3.214,1.239,3.244,3.717v6.298h-2.627
		v-6.239c0-0.564-0.121-0.981-0.362-1.252c-0.243-0.271-0.646-0.405-1.209-0.405c-0.771,0-1.327,0.298-1.673,0.894v7.004h-2.625
		v-13.957h2.625L305.114,115.589L305.114,115.589z"/>
	<path fill="#4F5250" d="M313.04,111.973c0-0.396,0.132-0.719,0.396-0.974c0.265-0.255,0.623-0.382,1.078-0.382
		c0.447,0,0.805,0.127,1.071,0.382s0.399,0.578,0.399,0.974c0,0.398-0.135,0.727-0.404,0.98s-0.625,0.381-1.066,0.381
		c-0.443,0-0.799-0.127-1.068-0.381C313.176,112.699,313.04,112.372,313.04,111.973z M315.83,124.349h-2.635v-9.832h2.635V124.349z"
		/>
	<path fill="#4F5250" d="M320.503,114.517l0.082,1.136c0.703-0.878,1.646-1.317,2.826-1.317c1.042,0,1.817,0.307,2.325,0.918
		c0.51,0.611,0.771,1.526,0.781,2.744v6.353h-2.625v-6.304c0-0.559-0.121-0.964-0.363-1.216s-0.646-0.378-1.209-0.378
		c-0.739,0-1.293,0.315-1.664,0.947v6.949h-2.625v-9.832H320.503z"/>
	<path fill="#4F5250" d="M333.127,124.53c-1.441,0-2.615-0.441-3.521-1.326c-0.904-0.885-1.357-2.062-1.357-3.535v-0.254
		c0-0.988,0.191-1.871,0.572-2.648c0.382-0.778,0.923-1.378,1.621-1.8c0.701-0.421,1.498-0.632,2.396-0.632
		c1.345,0,2.403,0.424,3.177,1.272c0.771,0.848,1.158,2.051,1.158,3.606v1.072h-6.261c0.085,0.642,0.341,1.157,0.769,1.545
		c0.426,0.388,0.967,0.581,1.621,0.581c1.012,0,1.803-0.366,2.371-1.1l1.291,1.444c-0.395,0.559-0.927,0.992-1.6,1.305
		C334.689,124.375,333.945,124.53,333.127,124.53z M332.827,116.452c-0.521,0-0.943,0.177-1.269,0.529
		c-0.324,0.354-0.531,0.857-0.623,1.516h3.653v-0.21c-0.012-0.584-0.169-1.036-0.473-1.354
		C333.814,116.612,333.385,116.452,332.827,116.452z"/>
	<path fill="#4F5250" d="M344.079,121.632c0-0.32-0.158-0.573-0.478-0.759c-0.318-0.185-0.828-0.35-1.531-0.495
		c-2.338-0.489-3.508-1.483-3.508-2.979c0-0.872,0.362-1.602,1.086-2.187c0.725-0.585,1.672-0.877,2.841-0.877
		c1.247,0,2.245,0.294,2.993,0.882s1.123,1.352,1.123,2.29h-2.627c0-0.376-0.121-0.687-0.362-0.932
		c-0.242-0.246-0.621-0.368-1.136-0.368c-0.442,0-0.785,0.101-1.027,0.3c-0.242,0.2-0.363,0.454-0.363,0.765
		c0,0.29,0.139,0.524,0.413,0.704c0.276,0.179,0.741,0.333,1.396,0.463c0.654,0.131,1.205,0.276,1.653,0.44
		c1.388,0.51,2.081,1.391,2.081,2.645c0,0.896-0.385,1.622-1.154,2.177c-0.769,0.555-1.763,0.831-2.979,0.831
		c-0.823,0-1.556-0.146-2.194-0.44s-1.141-0.695-1.504-1.208s-0.545-1.064-0.545-1.658h2.489c0.024,0.467,0.196,0.823,0.519,1.071
		c0.321,0.249,0.752,0.373,1.291,0.373c0.502,0,0.883-0.096,1.141-0.286C343.951,122.19,344.079,121.94,344.079,121.632z"/>
	<g>
		<path fill="#F76125" d="M43.941,6.389C19.673,6.389,0,26.062,0,50.33c0,24.269,19.673,43.941,43.941,43.941
			S87.882,74.598,87.882,50.33C87.882,26.062,68.209,6.389,43.941,6.389z M43.941,91.169c-22.403,0-40.839-18.435-40.839-40.839
			S21.538,9.49,43.941,9.49c10.828,0,21.222,4.306,28.877,11.963l-4.78,4.78c6.467,5.984,10.522,14.539,10.538,24.042v0.147
			c-0.026,9.42-4.019,17.906-10.396,23.875l2.158,2.139c6.883-6.818,10.77-16.062,10.821-25.701h0.005V50.33h3.618
			C84.781,72.733,66.344,91.169,43.941,91.169z"/>
		<path fill="#F76125" d="M43.941,50.2l-0.076-13.053C36.804,37.19,31.018,43.069,31.018,50.2c0,7.161,5.833,13.053,12.923,13.053
			S56.865,57.361,56.865,50.2c0-3.388-1.307-6.647-3.64-9.081L43.941,50.2z"/>
		<path fill="#F76125" d="M64.752,29.519l-2.248,2.247c4.971,4.837,8.06,11.598,8.06,19.081c0,7.232-2.886,13.792-7.567,18.59
			l2.124,2.088c5.474-5.55,8.544-13.034,8.544-20.823C73.666,42.641,70.375,35.03,64.752,29.519z"/>
	</g>
</g>
</svg>
